HIERARCHY
ROOT Pelvis
{
	OFFSET 0.000000 0.000000 0.000000
	CHANNELS 6 Xposition Yposition Zposition Xrotation Yrotation Zrotation
	JOINT LeftUpLeg_virtual
	{
		OFFSET 0.000000 0.000000 0.000000
		CHANNELS 3 Xrotation Yrotation Zrotation
		JOINT LeftUpLeg
		{
			OFFSET 18.735201 -5.666702 -4.541200
			CHANNELS 3 Xrotation Yrotation Zrotation
			JOINT LeftLeg
			{
				OFFSET -0.021200 -31.938179 0.493100
				CHANNELS 3 Xrotation Yrotation Zrotation
				JOINT LeftFoot
				{
					OFFSET 0.021200 -31.938179 -4.336299
					CHANNELS 3 Xrotation Yrotation Zrotation
					JOINT LeftToeBase
					{
						OFFSET 0.943001 -26.722000 15.023500
						CHANNELS 3 Xrotation Yrotation Zrotation
						End Site
						{
							OFFSET 0 0 0
						}
					}
				}
			}
		}
	}
	JOINT RightUpLeg_virtual
	{
		OFFSET 0.000000 0.000000 0.000000
		CHANNELS 3 Xrotation Yrotation Zrotation
		JOINT RightUpLeg
		{
			OFFSET -18.735201 -5.666702 -4.541200
			CHANNELS 3 Xrotation Yrotation Zrotation
			JOINT RightLeg
			{
				OFFSET 0.018946 -31.938133 0.493100
				CHANNELS 3 Xrotation Yrotation Zrotation
				JOINT RightFoot
				{
					OFFSET -0.018946 -31.938126 -4.336299
					CHANNELS 3 Xrotation Yrotation Zrotation
					JOINT RightToeBase
					{
						OFFSET -0.943001 -26.722004 15.023500
						CHANNELS 3 Xrotation Yrotation Zrotation
						End Site
						{
							OFFSET 0 0 0
						}
					}
				}
			}
		}
	}
	JOINT Hips_virtual
	{
		OFFSET 0.000000 0.000000 0.000000
		CHANNELS 3 Xrotation Yrotation Zrotation
		JOINT Hips
		{
			OFFSET -0.000000 -0.000000 -0.000000
			CHANNELS 3 Xrotation Yrotation Zrotation
			JOINT Spine
			{
				OFFSET 0.000000 10.199997 -0.299500
				CHANNELS 3 Xrotation Yrotation Zrotation
				JOINT Spine1
				{
					OFFSET 0.000000 11.900002 -1.516600
					CHANNELS 3 Xrotation Yrotation Zrotation
					JOINT Spine2
					{
						OFFSET 0.000000 13.600006 -2.842500
						CHANNELS 3 Xrotation Yrotation Zrotation
						JOINT Neck_virtual
						{
							OFFSET 0.000000 0.000000 0.000000
							CHANNELS 3 Xrotation Yrotation Zrotation
							JOINT Neck
							{
								OFFSET 0.000000 9.624100 -2.890100
								CHANNELS 3 Xrotation Yrotation Zrotation
								JOINT Head
								{
									OFFSET 0.000000 14.068802 -1.351900
									CHANNELS 3 Xrotation Yrotation Zrotation
									End Site
									{
										OFFSET 0 0 0
									}
								}
							}
						}
						JOINT LeftShoulder_virtual
						{
							OFFSET 0.000000 0.000000 0.000000
							CHANNELS 3 Xrotation Yrotation Zrotation
							JOINT LeftShoulder
							{
								OFFSET 15.263000 10.923401 -0.547700
								CHANNELS 3 Xrotation Yrotation Zrotation
								JOINT LeftArm
								{
									OFFSET 25.438599 -2.830597 -13.032500
									CHANNELS 3 Xrotation Yrotation Zrotation
									JOINT LeftForeArm
									{
										OFFSET 29.960503 0.000000 0.000000
										CHANNELS 3 Xrotation Yrotation Zrotation
										JOINT LeftHand
										{
											OFFSET 27.849251 0.000000 0.000000
											CHANNELS 3 Xrotation Yrotation Zrotation
											End Site
											{
												OFFSET 0 0 0
											}
										}
									}
								}
							}
						}
						JOINT RightShoulder_virtual
						{
							OFFSET 0.000000 0.000000 0.000000
							CHANNELS 3 Xrotation Yrotation Zrotation
							JOINT RightShoulder
							{
								OFFSET -15.263000 10.923401 -0.547700
								CHANNELS 3 Xrotation Yrotation Zrotation
								JOINT RightArm
								{
									OFFSET -25.438599 -2.830597 -13.032500
									CHANNELS 3 Xrotation Yrotation Zrotation
									JOINT RightForeArm
									{
										OFFSET -29.960503 0.000000 0.000000
										CHANNELS 3 Xrotation Yrotation Zrotation
										JOINT RightHand
										{
											OFFSET -27.849251 0.000000 0.000000
											CHANNELS 3 Xrotation Yrotation Zrotation
											End Site
											{
												OFFSET 0 0 0
											}
										}
									}
								}
							}
						}
					}
				}
			}
		}
	}
}
MOTION
Frames: 9
Frame Time: 0.03333333
-0.129285 35.299335 -0.976856 0.000000 0.000000 0.000000 73.329136 -2.498973 3.125459 3.633781 11.322981 3.239466 9.907910 5.604462 2.730394 -26.705481 5.852489 -4.916254 0.000000 0.000000 0.000000 74.258766 -1.865739 1.519336 -14.450315 -9.594919 -4.026486 25.155143 2.065858 -0.234326 -24.311601 -3.595741 3.203815 0.000000 0.000000 0.000000 72.081240 -1.232984 3.404273 -1.302199 -0.728725 -2.775702 -1.090120 0.138157 1.915242 1.645612 -0.461256 1.012342 0.000000 0.000000 0.000000 1.172889 0.009215 0.944347 -4.118730 -0.329662 1.649193 0.000000 0.000000 0.000000 2.020796 0.187539 0.895502 1.318222 -2.673972 1.342518 -59.783963 -56.008518 -65.916885 -1.225348 -12.893466 -1.267140 0.000000 0.000000 0.000000 1.572695 0.313495 0.748698 0.544892 2.498787 15.088624 -56.797370 53.686342 55.498176 0.454152 21.815488 1.041470 0.000000 0.000000 0.000000 
-0.022271 35.226028 -1.124828 0.000000 0.000000 0.000000 73.047487 -2.593595 3.121683 3.532516 11.552083 3.384580 10.076119 5.793609 2.604195 -26.336405 5.903842 -4.922040 0.000000 0.000000 0.000000 73.910952 -2.008965 1.574663 -14.475664 -9.728259 -4.039513 25.404148 1.951194 -0.182156 -24.671111 -3.611276 3.129785 0.000000 0.000000 0.000000 71.795602 -1.336157 3.410192 -1.311547 -0.761361 -2.836493 -0.894763 0.161663 1.918785 1.672553 -0.481422 0.995548 0.000000 0.000000 0.000000 1.189155 -0.006518 0.912348 -4.125401 -0.318717 1.645216 0.000000 0.000000 0.000000 1.982065 0.183015 0.887036 1.350974 -2.588920 1.425639 -59.526055 -56.002408 -65.702233 -1.174737 -13.085772 -1.191552 0.000000 0.000000 0.000000 1.480632 0.285429 0.724505 0.532800 2.764168 15.121858 -55.922587 53.450513 54.878576 0.528657 22.498447 0.831103 0.000000 0.000000 0.000000 
0.067893 35.210930 -1.261711 0.000000 0.000000 0.000000 72.694298 -2.651143 3.104994 3.505956 11.953300 3.521603 9.725587 5.926172 2.514886 -26.151505 5.957157 -4.905884 0.000000 0.000000 0.000000 73.433775 -2.114513 1.615648 -14.565734 -9.872022 -4.107613 25.740061 1.761299 -0.009322 -24.749279 -3.396724 3.148645 0.000000 0.000000 0.000000 71.446798 -1.481907 3.442144 -1.326348 -0.712233 -2.821629 -0.602977 0.155714 1.962190 1.718985 -0.498958 0.969701 0.000000 0.000000 0.000000 1.211133 -0.028980 0.860592 -4.113431 -0.296390 1.625688 0.000000 0.000000 0.000000 1.973542 0.172571 0.867893 1.363035 -2.568258 1.823058 -58.611171 -56.032024 -64.987030 -1.117381 -13.787887 -1.114169 0.000000 0.000000 0.000000 1.387545 0.260824 0.703858 0.348319 3.604056 15.119083 -53.080617 52.911987 52.322770 0.522605 24.415283 0.733015 0.000000 0.000000 0.000000 
0.112218 35.277649 -1.405457 0.000000 0.000000 0.000000 72.316199 -2.643400 3.044619 3.604815 12.366261 3.627900 8.724331 6.005345 2.476250 -25.921130 5.920990 -4.994147 0.000000 0.000000 0.000000 72.915644 -2.155007 1.607074 -14.685943 -9.953250 -4.152017 26.086717 1.551054 0.205065 -24.248903 -2.951594 3.250823 0.000000 0.000000 0.000000 71.071766 -1.625235 3.473314 -1.313359 -0.592917 -2.746737 -0.268970 0.118019 2.060016 1.810212 -0.512811 0.925577 0.000000 0.000000 0.000000 1.264744 -0.056883 0.783240 -4.085181 -0.266406 1.594120 0.000000 0.000000 0.000000 2.006742 0.152022 0.824052 1.364188 -2.652579 2.501759 -57.273404 -56.001493 -63.962618 -1.059561 -14.943117 -1.029387 0.000000 0.000000 0.000000 1.334958 0.242084 0.678659 0.010186 4.959469 15.025098 -49.020401 51.840753 48.471250 0.458875 27.244400 0.716230 0.000000 0.000000 0.000000 
0.067572 35.412708 -1.587961 0.000000 0.000000 0.000000 71.937595 -2.557295 2.929762 3.750398 12.700968 3.724641 7.284614 6.092872 2.512752 -25.319023 5.840820 -5.084066 0.000000 0.000000 0.000000 72.417934 -2.099313 1.504796 -14.774471 -9.898496 -4.087332 26.331339 1.289412 0.376440 -23.470540 -2.386136 3.240549 0.000000 0.000000 0.000000 70.708215 -1.746496 3.481912 -1.278276 -0.470172 -2.679278 0.056759 0.045266 2.204587 1.973052 -0.527772 0.856577 0.000000 0.000000 0.000000 1.383675 -0.090933 0.682652 -4.045607 -0.233988 1.556325 0.000000 0.000000 0.000000 2.096774 0.122466 0.751025 1.363506 -2.858417 3.418239 -55.805330 -55.806925 -62.809006 -1.009148 -16.391744 -0.911297 0.000000 0.000000 0.000000 1.361660 0.228697 0.628368 -0.455268 6.717199 14.805967 -44.680768 50.052692 44.195046 0.355662 30.499513 0.768054 0.000000 0.000000 0.000000 
-0.080509 35.610981 -1.849081 0.000000 0.000000 0.000000 71.599999 -2.357288 2.732704 3.810131 12.840973 3.846220 5.757374 6.235872 2.675114 -24.271644 5.778727 -4.998799 0.000000 0.000000 0.000000 71.987844 -1.924846 1.298949 -14.666028 -9.731841 -3.828897 26.298733 0.912757 0.487795 -22.886690 -1.843244 2.980878 0.000000 0.000000 0.000000 70.380482 -1.750040 3.394494 -1.283918 -0.338688 -2.558548 0.349402 -0.057042 2.354637 2.228921 -0.547090 0.761104 0.000000 0.000000 0.000000 1.594204 -0.128953 0.565026 -4.002059 -0.205129 1.520949 0.000000 0.000000 0.000000 2.259078 0.084941 0.644193 1.366080 -3.210025 4.500703 -54.359703 -55.411498 -61.596203 -0.986630 -17.970667 -0.756527 0.000000 0.000000 0.000000 1.492169 0.215672 0.550992 -1.011394 8.779692 14.480489 -40.848551 47.610885 40.094658 0.231250 33.707233 0.831552 0.000000 0.000000 0.000000 
-0.326747 35.875168 -2.222614 0.000000 0.000000 0.000000 71.315501 -2.052151 2.445448 3.822092 12.739358 3.976993 4.312786 6.428477 3.039302 -23.078798 5.849275 -4.616229 0.000000 0.000000 0.000000 71.641239 -1.654893 1.022923 -14.320193 -9.459452 -3.331739 25.986015 0.415177 0.567279 -22.864398 -1.416505 2.544376 0.000000 0.000000 0.000000 70.095554 -1.626790 3.208754 -1.243711 -0.181801 -2.465821 0.607119 -0.159412 2.452738 2.587910 -0.566327 0.647081 0.000000 0.000000 0.000000 1.910774 -0.169211 0.450080 -3.973463 -0.180271 1.492587 0.000000 0.000000 0.000000 2.516677 0.039818 0.513501 1.384026 -3.689903 5.726863 -52.899542 -54.813409 -60.238457 -0.996761 -19.619239 -0.560944 0.000000 0.000000 0.000000 1.740668 0.202183 0.453903 -1.641479 11.017092 14.089965 -37.880851 44.802640 36.444981 0.085991 36.657403 0.875897 0.000000 0.000000 0.000000 
-0.664303 36.222858 -2.661854 0.000000 0.000000 0.000000 71.126803 -1.735025 2.139728 3.938790 12.389656 4.047654 3.000525 6.580806 3.622045 -22.274676 6.106096 -4.039621 0.000000 0.000000 0.000000 71.390660 -1.367461 0.717584 -13.859098 -9.084157 -2.633846 25.484582 -0.147102 0.650876 -23.296522 -1.100843 2.119013 0.000000 0.000000 0.000000 69.871278 -1.405323 2.929594 -1.245798 -0.029442 -2.379192 0.839931 -0.219805 2.455565 3.039393 -0.575917 0.536434 0.000000 0.000000 0.000000 2.332119 -0.199642 0.349659 -3.975194 -0.161882 1.476360 0.000000 0.000000 0.000000 2.873215 0.002904 0.379733 1.415002 -4.312295 7.081625 -51.393454 -54.098845 -58.672076 -1.034142 -21.259876 -0.336032 0.000000 0.000000 0.000000 2.112525 0.199771 0.357046 -2.351623 13.373832 13.752797 -35.629480 41.950919 33.143073 -0.090779 39.203401 0.927365 0.000000 0.000000 0.000000 
-1.039862 36.702396 -3.154749 0.000000 0.000000 0.000000 71.080338 -1.453013 1.847833 4.173109 11.851480 3.988454 1.809831 6.684073 4.333791 -22.216360 6.482920 -3.546390 0.000000 0.000000 0.000000 71.257028 -1.144915 0.415600 -13.447914 -8.650442 -1.795788 24.892939 -0.715753 0.779159 -23.829897 -0.846279 1.794676 0.000000 0.000000 0.000000 69.752323 -1.171884 2.610224 -1.318845 0.058391 -2.369482 1.061511 -0.200199 2.356401 3.583530 -0.559968 0.443863 0.000000 0.000000 0.000000 2.853542 -0.204065 0.272317 -4.017723 -0.150533 1.472439 0.000000 0.000000 0.000000 3.327979 -0.010419 0.255199 1.458741 -5.104013 8.548778 -49.791608 -53.331336 -56.772792 -1.124229 -22.837147 -0.115347 0.000000 0.000000 0.000000 2.599411 0.225050 0.275268 -3.130189 15.818788 13.584276 -33.790981 39.318858 29.937149 -0.278467 41.374882 0.998247 0.000000 0.000000 0.000000 
